<svg id="Layer_1" data-name="Layer 1" xmlns="http://www.w3.org/2000/svg" viewBox="0 0 1217 478">
  <defs>
    <style>
      .cls-1 {
        fill: #e15745;
      }
      .cls-2 {
        fill: #2f2f31;
      }
      .cls-3 {
        fill: #fcfcfc;
      }
    </style>
  </defs>
  <title>Artboard 1cpshr</title>
  <g id="YedT8B.tif">
    <path
      class="cls-1"
      d="M717.29,111c-.5,13.77-.2,26.92-3.68,39.79-8.17,30.27-30.39,48.62-61.79,50.62-6.64.42-13.31.7-20,.56-3.71-.07-4.79.93-4.78,4.72.15,32.82,0,65.64.18,98.46,0,4.61-.84,6.36-5.92,6.26q-26.24-.51-52.48,0c-5,.08-6-1.51-6-6.17q.2-143.44.15-286.88c0-5.25-2.33-12,1.09-15.35,3.16-3.08,9.85-.88,15-.9,20.66-.08,41.33-.23,62,.05,16.7.23,32.79,3.1,47,12.85,13,8.91,20.48,21.54,25,36.26.77,2.51,1.49,5,2.4,8.14,4.2-19.8,11.94-36.69,28.7-48.17C754.55,4.09,766.32.62,778.72-.58,796-2.24,813.11-1.12,829,6.61,850,16.83,860.46,34.89,865,57c2.8,13.51,1.85,27.19,2.15,40.83.08,3.35-1.63,3.74-4.35,3.74q-26.75,0-53.48.21c-3.11,0-3.92-1.41-3.92-4.31,0-8.65.52-17.33-.4-26C803.9,60.92,795.77,56,785.69,59.76A8.8,8.8,0,0,0,780,65.62,42.26,42.26,0,0,0,783.13,99c7.68,14.57,19.71,25.48,31.73,36.28,13,11.73,25.79,23.76,35.28,38.59,21.41,33.46,23.47,68.86,7.51,104.77-8.11,18.25-23.92,28.76-43.23,33.27a102.19,102.19,0,0,1-49.49-.27c-28-7.31-43.73-26.37-49.84-54-3.75-17-1.66-34.2-2.3-51.31-.08-2.22,1.09-2.95,3-3,2.33-.08,4.66-.16,7-.16,15.49,0,31,.06,46.48-.12,3.91,0,5.16,1.22,5.2,5.15.11,11.65-.88,23.33.62,34.94,1,8,5.77,11.64,14.17,11.47s12.53-4.09,13.66-12.19c2.57-18.35-5.38-32.61-17.21-45.47-10.49-11.4-22.5-21.22-33.54-32-15-14.74-27-31.53-33.85-51.68A19.58,19.58,0,0,0,717.29,111Zm-90.15-9V131c0,11.3,0,11.3,11.21,11.14,10.64-.16,13.88-2.36,14.22-12.83q.88-27.16,0-54.37c-.33-10.2-3.8-12.65-13.92-12.66a67.67,67.67,0,0,1-7-.07c-3.42-.34-4.65.86-4.6,4.41C627.26,78.4,627.14,90.22,627.14,102Z"
    />
    <path
      class="cls-2"
      d="M359.57,246.44c-.12,15.24.81,37.27-1.24,59.17-4.6,49.2-26.87,90.3-59.28,126.6-11.66,13.05-23.56,25.75-38.14,35.7a94.27,94.27,0,0,1-53.51,16.85c-48,.31-94.54-8.95-135.36-34.14C32.08,426,6.4,389.12,1.23,340.89c-1.73-16.07-.53-32.57,4.51-48,6.4-19.58,19-35.26,35.32-47.91,20.4-15.78,43.49-19.62,68.44-16.46a262.32,262.32,0,0,1,58.43,14.62c1.88.7,3.66,1.48,5.65,0,11.82-8.56,25.84-10.08,39.66-12.22,22.12-3.42,44.44-3.84,66.74-4.72,7.08-.28,10.85-4.39,10.82-11.45,0-6.89-4.08-11.37-11.13-11.43-14-.12-28.1-1-42,.41-33.56,3.5-52.37-35.1-38.05-61.63,7.85-14.55,19.33-21.92,35.71-21.94,28,0,56-.12,84-.07,13.24,0,27.8,11.58,33.38,25.71,4.21,10.63,4.32,21.83,5.07,32.91C359.17,199.05,359.3,219.38,359.57,246.44ZM25.37,289.53c11.74,6.1,23,11.73,34.1,17.74,23.36,12.69,45.43,27.17,63.59,46.92A140.66,140.66,0,0,1,145.61,387c.6,1.21,2.71,3.47-1.2,3.58-9.33.28-18.65,1-28,.24-15.7-1.31-27.79-8.28-35.44-22.48-1.78-3.3-1.55-9-5.82-9.37-3.77-.32-7.81,2.39-11.73,3.77a17.46,17.46,0,0,0-1.85.75c-15.26,7.4-27.52,17.52-31.57,35-1.41,6.07-1.29,6.39,4.9,6,15.56-1.09,28.81,3.8,39.86,14.76,4.13,4.1,8.44,8,12.45,12.24,9.45,9.92,19.44,19.17,31.26,26.27C148.61,475.8,181.58,480.8,216,479c11.1-.58,21.86-3.12,31.36-9,32.52-20.08,53.07-48.91,60.72-86.35,3.48-17,10.93-31.22,24-42.6,4.54-4,9.55-7.23,14.34-10.84,3-2.28,2.84-5.24-.55-6.31-13.79-4.35-27.25-10-41.81-11.5-10.89-1.14-20.45,1.25-27.54,10.48-4.34,5.66-9.13,11-14,16.79-4.29-7.47-8.51-14.43-12.37-21.59a143.26,143.26,0,0,0-48.49-52.69c-21.64-14.17-45.83-21.95-70.6-28.2-4.07-1-8.62-.15-13-.15l-.61,1.38a23.15,23.15,0,0,1,2.88,2c13.48,12.19,26.37,24.91,36.16,40.42,6.11,9.68,13.64,18.48,18.18,29.13.52,1.23,2.36,2.78.39,4.41s-3.67.5-5.36-.68a180.36,180.36,0,0,0-76.34-30.39C70.45,279.72,48,280.18,25.37,289.53Z"
    />
    <path
      class="cls-1"
      d="M1038.05,157q0,74.72,0,149.42c0,3.5-.33,5.4-4.73,5.31-18.32-.37-36.65-.52-55-.28-4.49.06-5.54-1-5.52-5.4.16-37.64,0-75.29.22-112.94,0-5.12-1.3-6.6-6.38-6.27a178.83,178.83,0,0,1-21.47,0c-4.48-.24-5.64,1.22-5.62,5.6.16,36.65.09,73.29.1,109.94,0,8.93,0,8.92-8.76,9-17.49.06-35,.1-52.47.26-2.35,0-3.43-.72-3.37-3.09.06-2.16,0-4.33,0-6.49q0-147.18-.12-294.36c0-4.34,1-5.71,5.52-5.65q27,.34,54,0c4.29-.05,5.25,1.51,5.24,5.51-.12,37.65-.06,75.3-.06,113,0,6.51,0,6.5,6.46,6.48q10.25,0,20.49,0c6.3,0,6.31,0,6.31-6.58,0-37.32.1-74.63-.11-111.95,0-4.9.93-6.51,6.21-6.4,17.82.37,35.66.27,53.48,0,4.39-.07,5.62,1.13,5.61,5.56C1038,57.33,1038.06,107.14,1038.05,157Z"
    />
    <path
      class="cls-1"
      d="M1052.85,156.3c0-49.48.06-99-.09-148.44,0-4.39.89-6,5.68-5.91,26,.28,52-.14,78,.31,14.39.24,28.44,2.78,41.23,10.21,13.58,7.88,21.73,19.79,26.34,34.42A89.41,89.41,0,0,1,1208,74.44c-.1,14.64,1,29.32-1.08,43.91-2,13.78-6.26,26.61-16.2,36.81-3.42,3.51-3.36,5.66.32,9.06,10.62,9.83,14,23.12,15.9,36.78,3,22.21.92,44.58,1.58,66.87.24,8.3,0,16.67,2.36,24.78a112.3,112.3,0,0,0,5.52,14.43c1.25,2.79.78,4.32-2.78,4.3q-29.73-.15-59.47-.05c-2.75,0-3.64-1.27-4.48-3.55-4.23-11.43-5.33-23.24-5.31-35.33,0-19.49.57-39-.35-58.46-.07-1.33-.17-2.66-.35-4-2.15-15.84-9.82-17.47-24.55-17-1.77.06-2.15,1.26-2.16,2.73,0,1.66,0,3.33,0,5q0,51.48,0,103c0,8.92.71,7.52-7.31,7.54-17.16,0-34.33-.16-51.48.15-4.62.08-5.46-1.47-5.44-5.67Q1053,231,1052.85,156.3ZM1117,97.79v15.46c0,5.15-.08,10.3,0,15.45,0,1.61-.81,3.64,2,4.33,14.78,3.62,24.42-3.43,24.76-18.54.25-11.13.1-22.27.07-33.4a34.34,34.34,0,0,0-1.94-12.24,8.88,8.88,0,0,0-6.74-5.95c-4.61-1.09-9.28-.29-13.9-.7-3.27-.3-4.37.93-4.32,4.19C1117.09,76.85,1117,87.32,1117,97.79Z"
    />
    <path
      class="cls-1"
      d="M398.91,158.49c0-28-.3-56,.12-83.94.24-16.19,4.05-31.64,13.1-45.47,10.46-16,25.46-24.78,44-28.34,16.16-3.11,32.27-2.89,48,1.8C532.58,11.06,547,31.84,552,60.1c3.24,18.34,1.37,36.89,1.82,55.34.06,2.55-.9,3.49-3.52,3.48q-27.24-.12-54.47,0c-3.66,0-4-1.87-3.94-4.72.09-11.65.05-23.31.05-35,0-1.83,0-3.67-.1-5.5-.83-12.6-9.84-18.21-21.66-13.5a9.54,9.54,0,0,0-5.95,7.47,52.41,52.41,0,0,0-1.14,10.4q.07,78,0,155.9a51.77,51.77,0,0,0,.79,9.93c1.37,7.16,4.92,10.16,12.86,10.53,7.53.34,12.24-2.73,14.15-9.12a28.68,28.68,0,0,0,1-8.39c0-15.83.18-31.65,0-47.47-.05-4,1.27-5.08,5.12-5,17.49.17,35,.14,52.47,0,3.06,0,4.51.61,4.44,4.1-.4,18.47.78,37-.71,55.43-1.22,15.07-4.89,29.48-13.94,42.11-11.58,16.19-27.66,24.53-46.94,27.22-15.32,2.13-30.59,1.83-45.45-3-24.72-8-38.9-25.5-45.05-50.25-2.43-9.79-3.06-19.69-3-29.71.07-24,0-48,0-71.95Z"
    />
    <path
      class="cls-2"
      d="M77.45,103c0,22.65.21,45.3-.07,68-.21,17.53-14.64,32.65-32.57,34.87C26,208.2,9.54,197.46,3.86,180.48c-2.36-7-2.69-13.87-2.69-21,0-40.14-.71-80.31.43-120.42C2,24.69,8.15,11.19,23.47,5c4.7-1.89,9-5,14.58-4.34C60.17,3.22,78.56,17.1,77.68,39.09c-.85,21.29-.18,42.63-.18,64Z"
    />
    <path
      class="cls-2"
      d="M169,99.44c0,20.65.07,41.3,0,61.95-.1,23-15.27,35.31-34.18,38.32C117,202.55,98.1,186.49,96,167.28c-1.62-15.09-.6-30.28-.72-45.43-.2-26.3-1.29-52.61-.19-78.91a91,91,0,0,1,1.27-13.41C98.64,17.8,106.06,10,116.6,5.19c4.14-1.89,8.07-4.22,13-4.6,17.46-1.36,41,18,39.45,37.93-1.55,20.19-.34,40.6-.34,60.92Z"
    />
    <path
      class="cls-2"
      d="M187.22,83.42c0-14.5-.23-29,.05-43.48.35-18.1,10.61-32.24,27.48-38.66C226-3,246,4.77,253.2,15.61a44.15,44.15,0,0,1,7.74,25.76c-.23,16.83,0,33.65-.08,50.48,0,5.55-1.42,6.84-7.47,6.62-17.63-.66-33.62,3.57-47.41,15a52.33,52.33,0,0,0-11.38,13.14,11.37,11.37,0,0,1-1.92,2.86c-1.42,1.22-2.6,3.83-4.64,3-1.81-.76-.86-3.32-.87-5.07-.06-14.66,0-29.32,0-44Z"
    />
    <path
      class="cls-2"
      d="M354.5,66.66c0,11.15,0,22.31,0,33.46,0,2.73-.08,4.13-3.83,3.19C337,99.9,323,99.67,309,99.74c-8.49,0-17-.23-25.47-.27-2.63,0-3.72-.89-3.68-3.77.25-20.8-.38-41.62.38-62.43.4-10.82,5.21-18.88,14.42-24,7.44-4.17,14.62-9.83,24-8.47,16,2.31,34,14.45,34.38,31.94.26,11.31.05,22.63.05,33.95Z"
    />
    <path
      class="cls-2"
      d="M433.79,383.85c3.06-11.23,6.31-22.42,9.09-33.72,1-4.23,3.87-3.23,6.52-3.26s5.41-.85,6.37,3.34c2.84,12.32,6.11,24.54,9.24,36.79a9,9,0,0,0,2.32,4.47V367.33c0-5.66,0-11.32-.07-17-.05-2.36.45-3.35,3.23-3.64,5.46-.56,8.33,1,10,6.66a118.48,118.48,0,0,0,9.8,23c0-8.49.18-17-.09-25.46-.11-3.29.83-4.23,4.06-4.2s4.73.5,4.67,4.28c-.22,13.81-.09,27.62-.09,42.79,3.07-5.68,3.56-10.81,5-15.58,2.82-9.22,5.53-18.49,7.66-27.88,1.21-5.37,5-2.91,7.77-3.5,3-.64,4.32.7,5,3.77,2.88,12.14,6.06,24.21,9.18,36.29a13.29,13.29,0,0,0,2.49,5.27c0-13.76.13-27.52-.09-41.28,0-3.3.73-4.38,4.06-4.14,4.31.31,8.67-.06,13,.2,7,.42,11.6,4.12,13.09,11a62.1,62.1,0,0,1,0,27.73c-1.44,6.09-5.31,9.93-11.72,10.61-8.46.89-17,.3-25.44.41-1.65,0-2.46-.62-2.73-2.17a13.18,13.18,0,0,0-.63-2.92c-1-2.18-.26-5.75-2.91-6.36a21.82,21.82,0,0,0-10.38,0c-2.73.76-2.42,4.56-2.76,7-.55,4-2.51,4.78-6,4.57-4.8-.3-10.43,1.23-14.23-.79s-3.85-8.4-5.64-12.81c-2.36-5.81-4.41-11.73-7.54-17.51,0,8.81-.21,17.62.09,26.42.13,3.75-.83,5.27-4.64,4.62a21.4,21.4,0,0,0-3.49,0c-9.23.06-9.3.08-12-8.82-.62-2.05-1.42-3.3-3.73-3a10.71,10.71,0,0,1-1.5,0c-8-.07-8.19-.11-10,7.62-.74,3.08-1.87,4.43-5.22,4.29-5.47-.23-5.5-.06-3.65-5.64A22.15,22.15,0,0,0,433.79,383.85ZM545,371.48c0,4.15-.14,8.3.07,12.44.09,1.75-1.31,4.59,1.33,5.08s6,1,8.5-1.36c4.67-4.27,4.69-27.37,0-31.83-2.51-2.41-5.68-1.94-8.47-1.37s-1.3,3.33-1.39,5.1C544.88,363.51,545,367.5,545,371.48Zm-27-12.31-.78.06q-1.23,5.31-2.47,10.63c-1.8,7.72-1.81,7.72,6.12,7.06a3.85,3.85,0,0,0,1-.54Zm-68.3,17.63c.82-.46,4.09,1.74,3.32-2.22-.71-3.58-1.6-7.12-2.47-10.67-.18-.74-.27-1.75-1.33-1.85-1.41-.14-1.5,1.11-1.72,2-.75,2.89-1.19,5.88-2.1,8.71C444.2,376.48,445.51,377.66,449.69,376.8Z"
    />
    <path
      class="cls-2"
      d="M1110.17,390.76c0-13,.11-25.95-.07-38.93,0-3.68.59-5.56,4.83-5.1,3.63.4,7.33.07,11,.1,12.48.11,18.68,11,12,21.62-1.67,2.66-1.82,4.23.1,6.56,1.64,2,1.69,4.65,1.78,7.15.1,2.67.07,5.33.21,8,.09,1.77-.11,4.44,2.13,4.37,2.64-.09,1.42-2.88,1.43-4.41q.18-19.74,0-39.49c0-2.5.15-3.93,3.38-3.88,13.46.18,26.93.14,40.4,0,2.94,0,4.42.91,5.33,3.79,1.55,4.9,3.57,9.65,5.78,15.5,2.35-5.92,4.33-11,6.33-16,1.08-2.69,7.16-4.72,9.45-3.13,1.44,1,.32,2.11-.07,3.06a129.23,129.23,0,0,1-5.47,12.86c-5,9.21-7.19,18.9-6,29.28.47,4-1.38,4.69-4.83,4.65-3.3,0-5-.78-4.4-4.47,2.15-12.72-3.25-23.74-8-34.88-2.07-4.8-6.37-2.24-9.62-2.4-3.52-.17-2.13,3.12-2.15,4.94-.13,10.83-.25,21.66,0,32.48.1,4.12-1.83,4.47-5.11,4.69-3.56.23-4-1.26-4-4.28.15-11-.08-22,.15-33,.08-3.85-1-5.25-5-5.12-7.17.22-7.17,0-7.16,7.15,0,10.33-.08,20.66.09,31,0,2.83-.8,3.87-3.64,3.77-4.47-.15-9-.2-13.42.06-3.43.2-4.42-1.61-4.57-4.45-.19-3.66-.11-7.34-.45-11-.44-4.62-6-7.55-10.17-5.56-1.6.77-1.17,2.22-1.18,3.46-.06,4.67-.14,9.34,0,14,.09,2.56-.71,3.71-3.36,3.52-2-.14-4,0-6,0-8.55.06-8.68.1-10.91-8.22-.74-2.76-1.87-3.7-4.76-3.7-8.48,0-8.48-.14-10.82,8.07-.89,3.1-7,5.37-9.49,3.53-1.17-.88-.32-1.8-.09-2.65,4-14.6,8.08-29.16,12-43.78.72-2.71,2.26-3.85,4.58-3.09,2.67.87,6.72-2.62,8,2.92,2.59,11.18,5.6,22.27,8.46,33.39.65,2.52,1.39,5,2.08,7.54Zm9-29.63c1,2.46-2.37,7.62,4.52,7.07,5.26-.42,7.46-2.11,7.52-7s-2.15-6.59-7.37-7.09C1117.64,353.5,1119.63,357.82,1119.21,361.13Zm-26.82-1.75-.88-.05c-1.2,5.21-2.9,10.36-3.45,15.63-.43,4.08,3.3,1.48,5.08,2,1.58.42,3.52.46,2.84-2.34C1094.76,369.51,1093.58,364.44,1092.39,359.38Z"
    />
    <path
      class="cls-2"
      d="M776,458.79c1.93-8.39,4.19-16.73,5.67-25.2.79-4.55,2.6-6,7.1-5.74,7.05.35,7.08.07,7.08,7.22,0,12.77,0,25.54,1,38.54.71-2.45,1.45-4.89,2.14-7.35,3.21-11.54,6.66-23,9.49-34.65,1.17-4.82,4.36-3.37,7.27-3.66s4.81.28,5.63,3.79c3,12.64,6.3,25.18,9.52,37.76.21.85-.25,2.12,1.7,2.32.83-1.37.43-3,.43-4.54,0-11.49-.06-23,.08-34.47,0-1.65-1.45-4.82,1.79-4.68s7.48-2.61,9.44,2.55q4,10.49,8,20.94c.52,1.32.6,3,2.46,3.79,1.52-1.39,1-3.28,1-4.93.06-6.49.14-13-.09-19.48-.15-4.08,2.65-2.88,4.72-3.06,2.25-.19,4.25-.31,4.21,3.1q-.18,21.73,0,43.47c0,2.66-1,3.17-3.52,3.42-5.21.52-8-1-9.55-6.45a135.06,135.06,0,0,0-9.88-24.11c0,8.15-.42,16.32.14,24.43.38,5.4-1.62,6.78-6.37,6a6.61,6.61,0,0,0-1-.08c-3.33,0-7.18,1-9.85-.35-2.84-1.43-2.38-5.82-3.17-9-.51-2.05-1.56-2.71-3.49-2.56-.83.06-1.66,0-2.5,0-7.45,0-7.79-.07-9,7-.7,4-2.26,5-6.15,5-13.18-.2-13.17,0-13.08-13.32a106.88,106.88,0,0,0-.88-17.14c-1.49,6.06-3,12.13-4.47,18.2-.62,2.58-1.24,5.18-1.74,7.79s-1,4.57-4.52,4.55-4.51-1.58-5.05-4.6c-.76-4.25-1.87-8.44-2.89-12.64-1-4-2-8-3.08-12.1-2.17,1-1.35,2.68-1.37,3.95-.1,7.16-.3,14.33.07,21.48.2,3.86-1.75,3.78-4.44,3.77s-4.31,0-4.25-3.58c.21-14.15.15-28.31,0-42.46,0-3,.86-3.93,4-3.92,9,.06,9.06-.12,11.19,8.58,1.83,7.41,3.48,14.87,5.21,22.3Zm39.11-18.59-.91-.14c-1.35,5.86-2.69,11.72-4.12,18a42.74,42.74,0,0,1,4.63,0c3.69.46,4.54-.79,3.44-4.38C816.86,449.29,816.14,444.7,815.15,440.2Zm-51.78,7.33.32.31.3-.33-.47-.31Z"
    />
    <path
      class="cls-2"
      d="M884.58,389.34c-.25-1.56-.43-2.51-.56-3.47-.73-5.71,1.29-7.32,7-5.89,2.17.55,1.77,2.07,1.84,3.48.19,3.87,1.94,6.35,6,6.57,3.27.17,6-.85,6.82-4.44.9-4.08-.4-7.24-4.47-8.87-1.85-.74-3.77-1.31-5.64-2-9.63-3.65-13.34-11-10.16-20,2.58-7.31,11.22-10.83,20-8.14,5.39,1.65,8.34,5.93,8.28,11.64,0,2.11-.82,3.48-2.85,2.87s-5.44,2.26-6-2c-.49-3.7-2.09-5.94-6-5.75a5.12,5.12,0,0,0-5.25,4.41c-.79,3.89.89,6.49,4.25,8.05,3,1.4,6.21,2.38,9.23,3.76,5.91,2.71,8.32,7.14,7.93,14.15-.37,6.81-3.38,11.33-9.67,13-8.42,2.18-16.15,1.35-20.75-7.41-3,2,.83,6.39-3,7.23-2.7.59-5.63.16-8.46.16-4.49,0-9-.14-13.48,0-2.72.11-3.79-.56-3.76-3.57.15-14.31.1-28.62,0-42.94,0-2.52.57-3.5,3.31-3.42,6.82.2,13.66.24,20.47,0,3.5-.13,3.12,1.83,3.15,4.1s0,4.25-3.32,4c-3.64-.27-7.32,0-11-.09-2.46-.09-3.87.64-3.56,3.36a2.78,2.78,0,0,1,0,.5c-.36,8.1-.36,8.1,7.6,8.1,1.5,0,3,.07,4.5,0,2.77-.13,5-.39,5,3.87s-2.1,4.5-5.24,4.26c-1.49-.11-3-.05-4.49,0-8.71.13-6.91-.83-7.48,7.48-.35,5.2,1.18,7,6.48,6.49A38.67,38.67,0,0,1,884.58,389.34Z"
    />
    <path
      class="cls-2"
      d="M883.16,452.7c0-6.66.28-13.33-.1-20-.25-4.21,1.4-5.12,5.12-4.84s7.32.13,11,0c5.07-.12,9.84.62,12.26,5.73,2.74,5.78,2.73,11.71-1.27,17-1.33,1.75-1.89,2.5-.07,4.25,2.41,2.32,2.62,5.62,2.71,8.82.07,3,.13,6,.25,9,.07,1.57.57,3.39,2.26,3.37,2.27,0,1.34-2.25,1.34-3.44.1-12.14.06-24.28.05-36.42a33.82,33.82,0,0,0,0-3.49c-.34-3.29.19-5.09,4.39-5,3.76.12,4.69,1.06,4.63,4.77-.22,13.81-.15,27.62,0,41.42,0,3.09-.94,4.1-4,3.93a88.62,88.62,0,0,0-12.41,0c-4.18.34-5.18-1.89-5.34-5.29-.18-3.66-.12-7.34-.61-10.95-.55-4-6.83-6.67-10.2-4.6-1.3.8-.84,2.05-.85,3.12-.07,4.83-.21,9.66,0,14.47.15,3.32-1.59,3.44-4,3.14-2.21-.27-5.26,1.28-5.17-3.11C883.26,467.34,883.16,460,883.16,452.7Zm9-10.31c1.5,2.08-2.85,7.05,3.56,7.08,5.83,0,8.46-2.18,8.44-7.33s-2.06-6.64-7.51-7C890.23,434.68,892.78,439.26,892.11,442.39Z"
    />
    <path
      class="cls-2"
      d="M828.31,366.34c0,8.24.15,15.86-.08,23.47-.09,2.87,2.21,7.13-4.25,7.08-6.22,0-4-4.13-4-6.81-.19-12.82-.17-25.65,0-38.48,0-1.59-1.47-4.81,1.86-4.58s7.54-2.55,9.47,2.67c2.61,7,5.31,14,8,21,.61,1.61,1.31,3.18,2.38,5.76,1.59-4.07,1-7.06,1.05-9.94a152.06,152.06,0,0,0-.11-16c-.3-4.06,2-3.6,4.62-3.71,2.81-.13,4.09.37,4,3.74-.21,13.65,0,27.31-.11,41,0,1.78,1.63,5.08-2,5-3.34-.08-7.73,2.42-9.62-3.21-2.63-7.89-5.71-15.62-8.62-23.41A5.15,5.15,0,0,0,828.31,366.34Z"
    />
    <path
      class="cls-2"
      d="M1038.69,372c0,7-.14,14,.06,21,.09,2.83-.77,3.83-3.61,3.79-9.88-.14-19.77-.19-29.65-.07-3,0-4-.77-4-3.92q.27-21,0-41.93c0-3.28.89-4.29,4.15-4.11,2.86.17,5-.12,4.91,4-.28,11.14,0,22.3-.17,33.45-.05,3.34.78,4.83,4.4,4.53a62.91,62.91,0,0,1,11,0c3.24.29,3.92-.94,3.88-3.9-.14-11,0-22-.07-33,0-2.84-.6-5.25,4.07-5.25,4.5,0,5.17,1.61,5,5.4C1038.53,358.7,1038.69,365.37,1038.69,372Z"
    />
    <path
      class="cls-2"
      d="M670.75,477.35c-.32.19-.43.32-.56.33-11.08.7-11.05.7-11.27-10.32a30.43,30.43,0,0,0-.62-6.41c-.82-3.44-7.4-5.8-10.25-3.88-1.24.84-.77,2.09-.78,3.17,0,4.82-.21,9.65.06,14.45.2,3.56-2.05,3.2-4.15,3.09s-4.88,1.16-4.86-2.89q.15-21.94,0-43.88c0-2.39.74-3.16,3.18-3.05,4.47.19,9,.09,13.46,0,5.19-.12,9.77,1.18,11.91,6.31,2.29,5.47,2.41,11.22-1.41,16.07-1.74,2.22-1.67,3,.13,5,2.54,2.86,2.27,6.76,2.42,10.43C668.19,469.8,666.91,474.19,670.75,477.35ZM647.17,442c1.64,2.06-3.08,7.28,3.46,7.46,5.7.16,8.59-2.28,8.65-7.12.06-5.16-2.16-6.86-7.79-7.24C645.59,434.75,647.49,438.78,647.17,442Z"
    />
    <path
      class="cls-2"
      d="M730.57,393.48c.73,2.83-1.68,3.46-5.56,3.27-6-.29-12-.21-18,0-2.9.1-4.13-.52-4.1-3.78.17-14.32.2-28.65,0-43-.06-4,2.4-3.11,4.59-3.07s4.64-1,4.56,3.11c-.24,11.49,0,23-.13,34.47,0,3.17.66,4.52,4.14,4.24a58.39,58.39,0,0,1,12,.07c3.11.4,3.1-.91,3.08-3.18-.07-11.32.08-22.65-.12-34-.06-3.43.4-5.08,4.46-4.93,3.52.13,4.78.74,4.7,4.65-.3,13.32,0,26.64-.2,40,0,2,1.83,5.6-2.76,5.34C734,396.49,729.12,398.34,730.57,393.48Z"
    />
    <path
      class="cls-2"
      d="M686.1,452.81c0-6.83.29-13.68-.1-20.49-.24-4.21,1.69-4.29,5-4.47,3.95-.22,4.34,1.57,4.16,4.69-.19,3.49.21,7-.06,10.49-.25,3.26.69,4.35,4.11,4.27,8.12-.18,8.12,0,8.11-8.17a52,52,0,0,0,0-6.49c-.5-3.76.83-4.91,4.64-4.81,3.33.08,4.58.73,4.52,4.37q-.33,20.73,0,41.48c.06,3.76-1.42,4.22-4.63,4.23s-4.82-.75-4.58-4.41c.29-4.65-.08-9.33.11-14,.13-3-.51-4.39-4-4.39-8.24,0-8.24-.19-8.23,8.17,0,3-.35,6,.07,9,.71,4.91-1.48,5.87-5.83,5.61-2.77-.17-3.32-1.15-3.28-3.59C686.17,467.14,686.1,460,686.1,452.81Z"
    />
    <path
      class="cls-2"
      d="M963.55,453c0-7.15.23-14.32-.09-21.45-.18-4.11,2.16-3.52,4.73-3.61s4.54-.1,4.3,3.48c-.28,4,.18,8-.16,12-.28,3.31,1.09,3.86,4,3.89,8.46.07,8.46.18,8.46-8.32,0-1.83,0-3.66,0-5.49,0-6,.1-6,6.2-5.54,2.08.14,2.93.67,2.92,2.88-.08,14.64-.13,29.28,0,43.91,0,4.48-3.09,2.76-5.2,3.09-2.51.39-4.11-.14-4-3.33.22-4.81-.15-9.66.11-14.47.2-3.53-.57-5-4.57-4.88-7.85.28-7.86,0-7.86,8,0,3.33-.18,6.67.05,10S972,478,967.91,478s-4.51-1.66-4.4-5c.21-6.65.06-13.31.06-20Z"
    />
    <path
      class="cls-2"
      d="M1042.92,371.7c0-7.14.09-14.3,0-21.44-.05-2.52.59-3.6,3.32-3.46,4.15.21,8.32,0,12.47.08,7.8.18,12.64,3.75,14.35,11.29a58.4,58.4,0,0,1-.17,27.66c-1.77,6.88-6,10.21-13.28,10.63-4.32.24-8.66,0-13,.27-3.33.25-3.8-1.22-3.73-4.08.19-7,.06-14,.06-20.95Zm9-.5c0,4.15-.14,8.31.07,12.45.09,1.8-1.3,4.63,1.15,5.25,2.92.75,6.33,1.21,8.9-1.42,4.5-4.6,4.56-27.09.06-31.53-2.58-2.55-6-2.19-8.93-1.47-2.49.62-1.07,3.46-1.18,5.26C1051.78,363.55,1051.94,367.38,1051.94,371.2Z"
    />
    <path
      class="cls-2"
      d="M686.28,371.8c0,7-.23,14,.09,20.95.17,3.61-1.34,4.16-4.35,4-2.64-.12-4.9.18-4.62-3.79.35-5,0-10,.12-15,.08-2.62-.49-3.85-3.51-3.94-8.94-.26-8.93-.4-8.93,8.45,0,3.16,0,6.32,0,9.48,0,4.07-4.29,6.46-8,4.55-1.39-.71-1-1.92-1.06-3,0-14.46.14-28.93-.07-43.39-.06-3.85,2.05-3.34,4.4-3.29s5.11-.71,4.81,3.45c-.29,4,.17,8-.11,12-.22,3.2,1,3.85,4,3.87,8.52.08,8.52.22,8.52-8.25a49.81,49.81,0,0,0-.08-6.47c-.51-3.86,1.13-4.73,4.75-4.7,3.23,0,4.31.89,4.22,4.15-.2,7-.06,14-.06,20.94Z"
    />
    <path
      class="cls-2"
      d="M720.38,449c0-6,0-10.51,0-15,0-3.22-.76-6.28,4.73-6.26s4.34,3.12,4.35,6.08c0,9.15,0,18.3,0,27.45a41.44,41.44,0,0,0,.46,5.44c.44,3.2,2.62,4.49,5.57,4.6a5.14,5.14,0,0,0,5.66-4.52,28.29,28.29,0,0,0,.41-5.45c0-9.81.15-19.63-.07-29.44-.07-3.46,1.3-4.16,4.37-4,2.79.15,5-.21,4.86,4-.32,10.47,0,20.95-.1,31.43-.17,12.94-11.31,19.52-23.07,13.85-4.18-2-6.06-5.5-6.74-9.81C719.82,460.75,720.68,454.08,720.38,449Z"
    />
    <path
      class="cls-2"
      d="M960.15,464.3c0,3,.11,6,0,9-.07,1.5,1,3.76-1.13,4.32-1.79.46-4.53,1.23-5.59-.55-1.26-2.1-1.81-.88-2.9-.28-8.71,4.73-17.35,1.26-19.91-8.34a56.37,56.37,0,0,1,.4-31.56c2.25-7.29,8-10.61,15.89-9.89,6.88.62,11.48,5,12.44,12.16.24,1.78,1.25,4.65-2.21,4.1-2.16-.34-6.14,2.57-6.27-2.79-.08-3.39-1.72-5.75-5.32-6.09-4-.39-5.81,2.24-6.52,5.54a62.56,62.56,0,0,0,.11,26.76,5.58,5.58,0,0,0,5.69,4.7c2.8.05,4.69-1.61,5.53-4.23a48.51,48.51,0,0,0,.94-4.86c.68-3.19-.26-4.84-3.8-4.18-3.23.61-3.75-1-3.79-3.89,0-3,1.21-3.74,3.87-3.39,4.15.55,9.79-2,12.11,1.27,2,2.79.41,8,.41,12.21Z"
    />
    <path
      class="cls-2"
      d="M998.88,372c0,6.19-.38,12.29-3.15,18-2.65,5.44-7.23,7.51-13,7.56s-10.76-2-13-7.5a47.94,47.94,0,0,1,.07-36.89c2.25-5.51,7.22-7.45,13-7.42s10.29,2.47,12.9,7.75C998.65,359.36,999,365.67,998.88,372Zm-23.38-.8c.13,5.06-.1,9.91,1.63,14.53.93,2.51,2.49,4.25,5.46,4.31a5.21,5.21,0,0,0,5.48-4.16,54,54,0,0,0,.19-28c-.66-2.64-2.39-4.68-5.73-4.49-3.18.18-4.71,2-5.61,4.77C975.5,362.49,975.73,367,975.5,371.23Z"
    />
    <path
      class="cls-2"
      d="M948.69,397.61c-9.29.05-14.56-4.63-15.17-13.53-.13-1.92-.77-4.49,2.54-4,2.29.35,6-2.19,6.38,2.89.17,2.66.64,5.43,3.7,6.46,3.44,1.16,7,1,8.65-2.57,1.58-3.36,1.28-7.1-2.35-9.21-2.7-1.58-5.81-2.44-8.75-3.58-5.77-2.25-9.37-6.14-9.69-12.59-.29-5.95,1.47-11.15,7-13.82,6-2.88,12.29-3,18,.89,3.68,2.51,4.2,6.57,4.29,10.67,0,2-1.43,2.28-2.71,1.89-2.08-.64-5.59,2-6.13-2.06-.51-3.85-2.29-5.79-6.07-5.72-2.79.05-4.73,1.44-5.26,4.35-.67,3.76.63,6.53,4.22,8.06,2.13.9,4.28,1.78,6.46,2.6,8.75,3.28,12,8.53,10.53,17.21C963.05,393.57,957.86,397.56,948.69,397.61Z"
    />
    <path
      class="cls-2"
      d="M1025.86,436c2.13-.16,2-2.29,2.83-3.46,3.61-4.82,11.36-7.07,18.14-5,5.69,1.73,8.26,5.23,8.52,11.45.07,1.77.27,3.75-2.32,3.14-2.19-.51-5.66,2.24-6.43-2.1-.59-3.32-1.89-5.75-5.61-5.76-2.73,0-4.86,1.17-5.58,4-1,3.7.21,6.7,3.62,8.4,3.25,1.63,6.77,2.72,10.08,4.25,5.91,2.75,8.35,7.67,7.53,14.77-.79,6.84-4.24,11-10.42,12.43-11.7,2.81-20.44-2.9-20.71-13.49,0-2,0-4,2.74-3.38,2.14.51,5.79-2.07,6.14,2.61.2,2.57.76,4.95,3.12,6.45a6.89,6.89,0,0,0,9.27-1.91,7.38,7.38,0,0,0-2.53-10,51.34,51.34,0,0,0-7-2.64c-8.83-3.27-11.75-7.86-10.93-17.11.08-.94.69-1.95-.34-2.76Z"
    />
    <path
      class="cls-2"
      d="M634.85,452.88A48,48,0,0,1,633,467.67c-2.1,7.11-6.68,10.77-13.63,11-7.45.28-12.6-2.84-14.85-10a51.44,51.44,0,0,1-.13-31.41c2.37-7.51,7.42-10.66,15.09-10.36,7,.28,11.63,4.17,13.68,11.62A48.64,48.64,0,0,1,634.85,452.88Zm-9,.05a37.63,37.63,0,0,0-1.22-12.83c-1-3-2.27-6.08-6.39-5.79-3.72.26-4.94,3-5.62,6a56.77,56.77,0,0,0,.06,25.18c.72,3.21,2.29,5.65,5.82,5.82,3.71.18,5.25-2.62,6.07-5.56A39.76,39.76,0,0,0,625.82,452.93Z"
    />
    <path
      class="cls-2"
      d="M585.48,346.9c4.31-1,5.71,1.05,6.63,5,3.15,13.58,6.76,27.05,10.11,40.59.32,1.31,2.29,3.69-.46,3.93-2.57.23-6,2-8-1.43-.58-1-.58-2.25-1-3.3-1-2.09.11-5.68-2.09-6.27a25.87,25.87,0,0,0-10.84-.27c-2.95.52-2.51,4.11-2.75,6.29-.59,5.29-3.69,5.68-7.91,5.32-2.43-.2-2.7-1.06-2.13-3.12,4.07-14.72,8.13-29.43,12.06-44.19C580.15,345.35,583.28,347.4,585.48,346.9Zm0,12.65-1,.08c-1.14,4.82-2.31,9.63-3.38,14.46-.19.85-.91,2.35.32,2.57a24.25,24.25,0,0,0,6.86.12c1.34-.15.71-1.58.52-2.45C587.72,369.39,586.61,364.47,585.51,359.55Z"
    />
    <path
      class="cls-2"
      d="M430.28,390.59c-3.62,6.56-9.59,7.72-16.26,6.75s-10-5.44-11.34-11.64a71.64,71.64,0,0,1-.18-27.26c1.65-9.33,7.59-13.3,17.27-12.55,7.65.6,12.09,5.25,12.68,13.35.14,1.88.95,4.55-2.36,4.08-2.38-.33-6.42,2.38-6.69-3.06-.13-2.67-.72-5.36-3.66-6.54a5.72,5.72,0,0,0-8,4.3,63.44,63.44,0,0,0,0,27.19c.65,3.23,2.71,4.94,6,4.85,3.1-.09,4.71-2.14,5.46-4.95a7,7,0,0,0,.4-2.45c-.71-6.14,3.65-5.23,7.07-4.8,4.26.53,1.59,3.73,1.77,5.82C431.69,386,431,388.28,430.28,390.59Z"
    />
    <path
      class="cls-2"
      d="M775.6,371.77c0-7.14.11-14.29-.06-21.43-.07-2.88.86-3.75,3.73-3.57,4.14.27,8.31,0,12.46.1,8.26.2,12.86,5,13.14,13.66.3,9.25-4.12,15.12-12.07,16-8.13.93-8.14.93-8.15,9.2a41.12,41.12,0,0,0,0,6c.56,3.93-.88,5.11-4.85,5.08-3.65,0-4.44-1.21-4.31-4.6C775.79,385.4,775.6,378.58,775.6,371.77Zm8.78-10.16c2,2.26-2.9,7.51,3.71,7.61,5.5.08,7.94-2.37,7.84-7.78-.09-4.95-2.39-7.09-7.4-7.3C781.79,353.85,785.88,359,784.38,361.61Z"
    />
    <path
      class="cls-2"
      d="M754.79,346.83h3.49c10.55,0,15.48,4.8,15.47,15,0,9.53-5.31,14.93-15.37,14.78-4.37-.07-5.47,1.42-5.09,5.41.31,3.29-.13,6.65.15,9.95.3,3.55-.57,4.89-4.55,4.84s-4.69-1.19-4.63-4.81q.29-19.93,0-39.86c-.07-3.93.66-6,5.1-5.32A36.93,36.93,0,0,0,754.79,346.83Zm-1.71,14.73c1.92,2.3-2.91,7.58,3.77,7.68,5.31.07,7.87-2.29,7.93-7.32.06-5.24-2.28-7.46-7.45-7.75C750.52,353.8,754.59,359,753.08,361.56Z"
    />
    <path
      class="cls-2"
      d="M624.84,371.87c0-7.14.1-14.29-.05-21.42-.06-2.71.62-3.88,3.57-3.71,4.13.25,8.3,0,12.45.11,8.08.21,12.57,4.53,13.18,12.55.73,9.59-3.29,15.67-11.35,17a18.37,18.37,0,0,1-5,.23c-3.21-.36-4,1.08-3.82,4,.23,4.14-.13,8.32.16,12.45.25,3.58-1.77,3.69-4.32,3.55-2.33-.14-5.07.88-4.91-3.39.27-7.13.08-14.27.08-21.41Zm9-9.76c.61,2-1.39,5.4,1.18,6.81,1.9,1.05,4.87.75,7.13-.71,3.39-2.21,3.11-5.61,2.59-8.89-.74-4.72-4.29-5.27-8.22-5.14-4.46.16-2.08,3.57-2.65,5.56A9.92,9.92,0,0,0,633.89,362.11Z"
    />
    <path
      class="cls-2"
      d="M574.83,452.29c0-7,.1-14-.06-21,0-2.5.42-3.49,3.22-3.39,6.66.23,13.33.24,20,0,3.94-.15,3,2.4,3.23,4.59.23,2.45-.39,3.71-3.19,3.54-3.49-.21-7,.14-10.49-.11-3.13-.22-4.26.95-3.83,4a11.44,11.44,0,0,1,0,3c-.54,3.83.83,5.56,4.89,5,2.13-.29,4.37.23,6.48-.12,4.79-.8,5.61,1.51,5.15,5.57-.22,1.93-.83,2.69-2.72,2.54-1-.07-2,0-3,0-10.74,0-10.74,0-10.78,11,0,1.83,0,3.66,0,5.49,0,5.2-2.22,6.81-7.26,5.52-2.29-.59-1.61-2.27-1.62-3.58-.08-7.33,0-14.65,0-22Z"
    />
    <path
      class="cls-2"
      d="M1026,435.89c-10.94.35-10.94.35-10.94,11.3,0,8.81-.24,17.63.09,26.43.14,3.87-1.43,4.17-4.6,4.26-3.47.11-4.55-.86-4.48-4.4.22-10.8-.1-21.61.17-32.41.1-4.11-1.1-5.45-5.25-5.28-2,.08-5.59,2.33-6.16-2.29-.49-3.94.26-6.09,5.15-5.67,6.1.53,12.29.13,18.44.12,8,0,8,0,7.45,8.07Z"
    />
    <path
      class="cls-2"
      d="M699.58,372c0,7.14-.2,14.3.08,21.43.15,3.88-2.28,3.31-4.52,3.34s-4.58.53-4.53-3.31q.27-21.68,0-43.37c-.06-4,2.31-3.18,4.5-3.18s4.7-.82,4.55,3.16c-.27,7.3-.07,14.62-.07,21.93Z"
    />
    <path
      class="cls-2"
      d="M806.53,371.87c0-7.16.22-14.33-.08-21.47-.15-3.52,1.43-3.74,4.16-3.58s5.21-.62,5.13,3.77c-.25,14.15-.23,28.3-.06,42.45,0,3.89-2.07,3.72-4.76,3.7s-4.68-.07-4.49-3.9C806.77,385.86,806.53,378.86,806.53,371.87Z"
    />
    <path
      class="cls-2"
      d="M611.87,380.55a24.8,24.8,0,0,0-4.48,0c-4.92.91-5.48-1.76-5.17-5.68.16-2.11.79-3,3-2.87,3.65.14,7.31,0,11,0,4.68,0,6.52,2.76,5,7.15-.46,1.3-1.28,1.32-2.27,1.33C616.53,380.57,614.2,380.55,611.87,380.55Z"
    />
    <path
      class="cls-3"
      d="M25.37,289.53c22.62-9.35,45.08-9.81,68-6.25a180.36,180.36,0,0,1,76.34,30.39c1.69,1.18,3.33,2.35,5.36.68s.13-3.18-.39-4.41c-4.54-10.65-12.07-19.45-18.18-29.13-9.79-15.51-22.68-28.23-36.16-40.42a23.15,23.15,0,0,0-2.88-2l.61-1.38c4.33,0,8.88-.88,13,.15,24.77,6.25,49,14,70.6,28.2a143.26,143.26,0,0,1,48.49,52.69c3.86,7.16,8.08,14.12,12.37,21.59,4.89-5.81,9.68-11.13,14-16.79,7.09-9.23,16.65-11.62,27.54-10.48,14.56,1.52,28,7.15,41.81,11.5,3.39,1.07,3.58,4,.55,6.31-4.79,3.61-9.8,6.88-14.34,10.84-13.07,11.38-20.52,25.57-24,42.6-7.65,37.44-28.2,66.27-60.72,86.35-9.5,5.87-20.26,8.41-31.36,9-34.44,1.8-67.41-3.2-97.52-21.28-11.82-7.1-21.81-16.35-31.26-26.27-4-4.21-8.32-8.14-12.45-12.24-11.05-11-24.3-15.85-39.86-14.76-6.19.43-6.31.11-4.9-6,4-17.5,16.31-27.62,31.57-35a17.46,17.46,0,0,1,1.85-.75c3.92-1.38,8-4.09,11.73-3.77,4.27.36,4,6.07,5.82,9.37,7.65,14.2,19.74,21.17,35.44,22.48,9.32.78,18.64,0,28-.24,3.91-.11,1.8-2.37,1.2-3.58a140.66,140.66,0,0,0-22.55-32.79C104.9,334.44,82.83,320,59.47,307.27,48.39,301.26,37.11,295.63,25.37,289.53Z"
    />
    <path
      class="cls-3"
      d="M1092.39,359.38c1.19,5.06,2.37,10.13,3.59,15.19.68,2.8-1.26,2.76-2.84,2.34-1.78-.47-5.51,2.13-5.08-2,.55-5.27,2.25-10.42,3.45-15.63Z"
    />
    <path
      class="cls-3"
      d="M814.24,440.06l.91.14c1,4.5,1.71,9.09,3,13.49,1.1,3.59.25,4.84-3.44,4.38a42.74,42.74,0,0,0-4.63,0"
    />
    <path
      class="cls-3"
      d="M763.37,447.53l.15-.33.47.31-.3.33C763.58,447.74,763.47,447.64,763.37,447.53Z"
    />
  </g>
</svg>
