<svg id="Layer_1" data-name="Layer 1" xmlns="http://www.w3.org/2000/svg" viewBox="0 0 991 186">
  <defs>
    <style>
      .cls-1 {
        fill: #666;
      }
      .cls-2 {
        fill: #c53431;
      }
      .cls-3 {
        fill: #6c6d6d;
      }
      .cls-3,
      .cls-4 {
        fill-rule: evenodd;
      }
      .cls-4 {
        fill: #b62025;
      }
    </style>
  </defs>
  <title>bird-whiteArtboard 1</title>
  <path class="cls-1" d="M191.76,51.65h14.56v96.11H191.76Z" />
  <path
    class="cls-1"
    d="M291.36,120.87q-3.17,13.38-12.07,20.56a34.25,34.25,0,0,1-21.68,7.12q-11.34-.27-18.92-5.54a32.18,32.18,0,0,1-11.21-11.73q-1-2.17-1.91-4.15a26.79,26.79,0,0,1-1.32-5.14q-1-5.8-1-22.28,0-16.75,1-22.42a26.67,26.67,0,0,1,3.23-9.16,33.18,33.18,0,0,1,11.21-11.86q7.58-5.28,18.92-5.41,13.9.14,22.67,8.24a36.23,36.23,0,0,1,11.08,20.24H275.93a21.07,21.07,0,0,0-6.46-9.89,19,19,0,0,0-11.86-4,20.29,20.29,0,0,0-8.84,2,18.44,18.44,0,0,0-6.06,5,15.91,15.91,0,0,0-3.76,8q-1,5.14-1,19.32t1,19.18a16.07,16.07,0,0,0,3.76,8.11,19.73,19.73,0,0,0,14.9,7q12.25,0,18.32-13.11Z"
  />
  <path
    class="cls-2"
    d="M354.24,105.77h-38v42H301.64V51.65h14.57v41.2h38V51.65h14.57v96.11H354.24Z"
  />
  <path
    class="cls-2"
    d="M389.11,51.65h37.51q12,0,19.58,6.33,9.17,7.19,9.56,20.5-.27,19.58-18.59,26.63l22.28,42.65H442.11l-19.84-41.07H403.68v41.07H389.11Zm14.57,42.12h22c5.45-.08,9.53-1.67,12.26-4.74a14.84,14.84,0,0,0,4-10.55q-.14-7.51-4.81-10.88-3.69-3-10.68-3H403.68Z"
  />
  <path
    class="cls-1"
    d="M471.45,51.65h34.8a55.08,55.08,0,0,1,10.94,1.06,29.41,29.41,0,0,1,10.68,5.66,23.08,23.08,0,0,1,7.38,9.23,29.74,29.74,0,0,1,3,13.71,29.17,29.17,0,0,1-7.51,19.45Q523,110,508.16,110.25H486v37.51H471.45ZM486,96.48h21.56q8.1-.14,12.19-5a16.22,16.22,0,0,0,3.89-10.55,18.59,18.59,0,0,0-1.58-8.11,12.12,12.12,0,0,0-4.61-4.68A18.27,18.27,0,0,0,507,65.43H486Z"
  />
  <path
    class="cls-1"
    d="M648.63,120.87q-3.15,13.38-12.06,20.56a34.3,34.3,0,0,1-21.69,7.12Q603.56,148.28,596,143a32.1,32.1,0,0,1-11.21-11.73q-1.05-2.17-1.91-4.15a26.79,26.79,0,0,1-1.32-5.14q-1-5.8-1-22.28,0-16.75,1-22.42a26.47,26.47,0,0,1,3.23-9.16A33.1,33.1,0,0,1,596,56.27q7.57-5.28,18.91-5.41,13.92.14,22.68,8.24a36.22,36.22,0,0,1,11.07,20.24H633.21a21.14,21.14,0,0,0-6.46-9.89,19.07,19.07,0,0,0-11.87-4,20.24,20.24,0,0,0-8.83,2,18.34,18.34,0,0,0-6.06,5,15.83,15.83,0,0,0-3.76,8q-1.05,5.14-1.06,19.32t1.06,19.18A16,16,0,0,0,600,127a19.73,19.73,0,0,0,14.89,7q12.27,0,18.33-13.11Z"
  />
  <path
    class="cls-1"
    d="M693.59,141.7h-.26a11.48,11.48,0,0,1-5.94,5.14q-3.95,1.71-10.94,1.71-11.48-.13-17.66-6.06a18.94,18.94,0,0,1-6.53-14.84,19.39,19.39,0,0,1,5.67-14.3q5.67-5.8,16.61-5.93h19.05v-7.19q.13-9-14-8.76a25.1,25.1,0,0,0-8.11,1,9.92,9.92,0,0,0-4.88,4.22L655.75,88.5q7.85-10.29,23.14-10,12.92-.14,20.63,4.88T707.37,101v46.74H693.59Zm0-22.94H677.11q-12,.26-11.86,8.24a7.33,7.33,0,0,0,3.09,5.93q3,2.7,9.83,2.7,8.63.13,12.19-2,3.23-2.18,3.23-9.89Z"
  />
  <path
    class="cls-1"
    d="M725.16,79.34h13.78v7.25h.27A22.05,22.05,0,0,1,757,78.48a23.47,23.47,0,0,1,15.56,6q7,6.06,7.32,17.8v45.48H766.1V107q0-7.18-3.82-10.94a13,13,0,0,0-9.69-3.82,13.21,13.21,0,0,0-9.76,3.82q-3.89,3.75-3.89,10.94v40.74H725.16Z"
  />
  <path
    class="cls-1"
    d="M833.6,141.7h-.26a11.48,11.48,0,0,1-5.94,5.14q-3.95,1.71-10.94,1.71-11.48-.13-17.67-6.06a19,19,0,0,1-6.52-14.84,19.39,19.39,0,0,1,5.67-14.3q5.67-5.8,16.61-5.93H833.6v-7.19q.14-9-14-8.76a25.1,25.1,0,0,0-8.11,1,9.92,9.92,0,0,0-4.88,4.22L795.76,88.5q7.85-10.29,23.14-10,12.92-.14,20.63,4.88T847.38,101v46.74H833.6Zm0-22.94H817.12q-12,.26-11.87,8.24a7.34,7.34,0,0,0,3.1,5.93q3,2.7,9.82,2.7,8.64.13,12.2-2,3.23-2.18,3.23-9.89Z"
  />
  <path
    class="cls-1"
    d="M906.11,140.57q-6.79,7.73-17.73,8A22.7,22.7,0,0,1,877.76,146a23.09,23.09,0,0,1-7.71-6.33,17.32,17.32,0,0,1-3.76-8.77q-1.11-5.26-1.12-17.4,0-12.32,1.12-17.53a17.12,17.12,0,0,1,3.76-8.51q5.81-8.62,18.33-9a22,22,0,0,1,9.75,2.18,39.1,39.1,0,0,1,8,5.93V51.65h13.78v96.11H906.11ZM892.6,92.26q-4.89,0-7.45,1.64A10.53,10.53,0,0,0,881,98.78a25.23,25.23,0,0,0-1.64,6.73,76.9,76.9,0,0,0-.4,8,69.37,69.37,0,0,0,.4,7.58,25.42,25.42,0,0,0,1.64,7,11.44,11.44,0,0,0,4.16,4.88q2.57,1.84,7.45,1.84a13.26,13.26,0,0,0,7.71-2,9.77,9.77,0,0,0,3.89-5,25.53,25.53,0,0,0,1.78-6.92q.13-3.77.13-7.39,0-3.95-.13-7.58a25.26,25.26,0,0,0-1.78-6.72,9.69,9.69,0,0,0-3.89-5A13.58,13.58,0,0,0,892.6,92.26Z"
  />
  <path
    class="cls-1"
    d="M971.17,141.7h-.26a11.48,11.48,0,0,1-5.94,5.14Q961,148.55,954,148.55q-11.47-.13-17.66-6.06a18.94,18.94,0,0,1-6.53-14.84,19.39,19.39,0,0,1,5.67-14.3q5.67-5.8,16.61-5.93h19v-7.19q.14-9-14-8.76a25.1,25.1,0,0,0-8.11,1,10,10,0,0,0-4.88,4.22L933.33,88.5q7.84-10.29,23.14-10,12.91-.14,20.63,4.88T985,101v46.74H971.17Zm0-22.94H954.69q-12,.26-11.86,8.24a7.33,7.33,0,0,0,3.09,5.93q3,2.7,9.83,2.7,8.63.13,12.19-2,3.22-2.18,3.23-9.89Z"
  />
  <path
    class="cls-3"
    d="M22.52,148.9c1-.14.52-.93.56-1.4a13.25,13.25,0,0,1,1.61-5.63A7.51,7.51,0,0,1,28.56,139h0c.85.7,2.36.81,2.33,2.44-3.45-1.12-4.94-.27-6,3.35A14.76,14.76,0,0,0,35.39,163a18.52,18.52,0,0,0,7.7.31c.35-.06.8,0,.87-.5s-.39-.55-.69-.73a5.88,5.88,0,0,0-2.2-.93.6.6,0,0,1-.58-.6.43.43,0,0,1,0-.19c.11-.54.57-.31.89-.28,1.18.18,2.12,1,3.27,1.39.52-1.55,2.09-2.45,2.42-4.12a.48.48,0,0,1,.69-.38c.48.18.43.51.27.89a12.58,12.58,0,0,0-.78,2.07c-.29,1.45.26,1.9,1.63,1.32,1.75-.75,3.46-1.59,5.21-2.35.42-.18,1-.85,1.36,0,.31.65.08,1.15-.62,1.48a38,38,0,0,1-6.35,2.49,6.48,6.48,0,0,0-.85.38c1,.72,2,.5,2.94.72.44.11.91.19.85.75s-.58.48-.87.36c-1.91-.82-3.49.7-5.29.71-.95,0-.66,1.16-1,1.78-.17.36-.14,1-.73.87s-.55-.7-.4-1.2c.23-.82.48-1.63.77-2.6a20.5,20.5,0,0,1-7.61.05,16.76,16.76,0,0,1-13.23-14.16c-.07-.55.31-1.38-.62-1.64Z"
  />
  <path
    class="cls-3"
    d="M38.19,143.53c.15.31.59.56.38,1s-.64.31-1,.31c-1.89.06-3.73-.12-5-1.71-.39-.47-.87-1.06-.62-1.65s1-.49,1.62-.5C35.55,140.93,37,142.06,38.19,143.53Z"
  />
  <path class="cls-3" d="M28.56,138.93c-1.44-2.55.34-5.82,3.73-6.75.27,3.13-.79,5.47-3.76,6.75Z" />
  <path class="cls-3" d="M22.52,148.85c-2.33,1-5.84-1.49-6.09-4.7,3.24-.07,4.92,1.22,6.09,4.73Z" />
  <path
    class="cls-3"
    d="M20.54,134.55c2.58,1.24,4.09,3.28,3.88,5.25-.15,1.46-.64,1.69-1.86.88A5.5,5.5,0,0,1,20.54,134.55Z"
  />
  <path
    class="cls-3"
    d="M31.86,152c1,2.75.52,5.26-1.19,6.52-.93.69-1.48.65-1.76-.62A5.5,5.5,0,0,1,31.86,152Z"
  />
  <path
    class="cls-4"
    d="M76.18,139.42c-.12.24-.24.47-.35.7a1,1,0,0,0,.66-.19C76.38,139.76,76.28,139.58,76.18,139.42Z"
  />
  <path
    class="cls-4"
    d="M82,147.82c-1.81-2.34-3.49-4.77-5.07-7.26-1.35,1.26-2.72,2.52-1.8,4.79a1.91,1.91,0,0,1-.35.07c-.66-.23-.44-1.13-1.2-1.46-2.41,4.44-5.92,7.95-10.2,11.23.9,0,1.4-.08,1.91-.07a.39.39,0,0,1,.44.35h0c0,.27-.18.31-.39.34-2,.21-3.73.84-4.28,3.07-.85-.46,0-1.28-.58-1.75-1,.51-1.92,1.05-2.88,1.56.83,1.52,1.72,3,2.69,4.45,1.69,2.51,3.8,5,6.72,5.81s6.67-1.1,6.7-4.13c.9,3.71,2,7.66,4.85,10.16s8.24,2.41,9.81-1.06a9.4,9.4,0,0,0,9.43,4.89c-.87-3.92,4.92-5.56,8.88-4.9s9.5.79,10.39-3.11C102.91,168.47,90.7,159.15,82,147.82Z"
  />
  <path
    class="cls-4"
    d="M142,34.52a4.21,4.21,0,0,0-3.59-4.14,6.68,6.68,0,0,0-5.47,1.94,26.88,26.88,0,0,0,4.87-13.09c.18-2.1-.21-10.51-4.79-6.59-3,2.53-4.07,11.32-5.59,15a57.81,57.81,0,0,1-9.6,16.18C107.92,55.05,93,60.05,79.31,66.26S51.65,81.83,48.08,96.39C47.81,82.18,61.8,72.26,74.65,66.18c10.77-5.1,25.27-11,31.45-21.82,1-1.68,1.66-3.92.46-5.43s-3.24-1.34-5-1.16c.41-1.86,2-3.21,3-4.85a8.12,8.12,0,0,0-8.89-12.07c4-1,1.92-16.07-5.06-15.29-5.26,18-11,36.89-24.41,50.05-3.16,3.1-6.64,5.84-9.74,9a51.7,51.7,0,0,0-4.65,5.49C49.15,73.94,46.7,77.88,44.47,82a10.83,10.83,0,0,0-.31,10.8,5.51,5.51,0,0,1,0,5c-1.27,3.11-3.24,5.74-5,8.55-1.45,2.36-1.22,3.86.78,5.78a12.09,12.09,0,0,0,1.42,1.15c1.65,1.15,1.66,1.14,1,3-.16.45-.34.89-.52,1.34a6.54,6.54,0,0,0-.73,2.21c0,1.09,1.27,1.73,1.28,2.53,0,1-.54,2,0,3a5.56,5.56,0,0,1,.72,1.5,12.9,12.9,0,0,0,1.22,4.35c.57,1.25.78,2.49,1.37,3.73.39.81,1.12,3.69,2.13,3.79a6.83,6.83,0,0,1,1.11,0,10.84,10.84,0,0,1,.91-4.45,8.74,8.74,0,0,1,1.32-1.92c.48-.53,1.24-.88,1.69-1.41-3.53,4.26-1.17,11.69.16,16.43a54.71,54.71,0,0,0,4,10.32c1-.62,2-1.33,3-1.85.26-.14.62-.26.56-.65s-.43-.41-.72-.5-.62-.14-.91-.24-1,.17-.9-.49.79-.34,1.06-.19c1.44.81,2-.11,2.48-1.18.26-.57,0-1.78.69-1.64s0,1.12,0,1.73a1.51,1.51,0,0,0,.35,1c.33.33.55,0,.77-.2a31.36,31.36,0,0,0,9.12-10.09c.16-.31.54-.6.21-1s-.65-.14-1-.14c-.73,0-1.31.84-2.17.41a2.9,2.9,0,0,1,2-1.13c.5-.13.6-.18.54-.91-.08-1-.65-2.06-.41-3.23.85.41.77,1.21,1.11,1.75.79,1.24,1.48,1.26,2.14,0,.15-.3.31-.59.45-.89-5.38-9-9.58-18.64-13.73-28.25a43,43,0,0,0,21.11,14.16c4.66,1.37,9.85,1.9,14.22-.22s7.3-7.62,5.28-12c7,1.82,22-11.27,12.88-13.17a16.12,16.12,0,0,0,6.37-.46,19.13,19.13,0,0,0,3.89-1.88,26.75,26.75,0,0,0,6.66-5,9.78,9.78,0,0,0,2.66-7.64c-.66-4.47-4.38-5.08-8-5.12-.21-1.55,1.69-2.42,3.15-3A15.25,15.25,0,0,0,139,59.82c-.36-2.44-2.75-7.37-6-4.5C138.34,50.65,141.48,41.36,142,34.52Zm-88.13,95.7c-.26,0-.59.16-.8-.25.31-.43.8-.17,1.18-.27s.68-.21.26-.69-.8-1.07-1.16-1.63c1-.09,1.24.75,1.71,1.19.15.13-.24.63.31.44a.49.49,0,0,0,.39-.58.29.29,0,0,0,0-.09c-.11-.43-.46-.84-.19-1.48,1.71,2.66,1.47,2.47,3.11,2.76-.27.52-.78.37-1.15.4-1.24.13-1.46.31-1.42,1.5,0,.28.16.56-.07.83-.43-.08-.39-.4-.42-.67C55.43,130.37,55.25,130.22,53.86,130.22Zm2.51,14.46a12.59,12.59,0,0,1,1.23-1.39c.2-.21.44-.34.68,0s0,.39-.15.58a10.67,10.67,0,0,0-1.25,1.51,2,2,0,0,0,.59,3c.43.33.82.7,1.43,1.24-3.07-.39-4.09-2.65-2.53-4.92Zm3.17.37c-.73-.81-.08-1.73-.57-2.41s-1.44-.29-2.13-.49c0-.56.41-.54.65-.49C59,142,59.05,141,59.12,140c0-.28-.15-.65.37-.81.29.71.08,1.56.62,2.23.41.49.66.76,1.29.52a.84.84,0,0,1,1.25.37c-1.65.23-2.93.84-3.11,2.79Zm9.79-12.74c.69.07.55.62.61,1,.26,1.55.38,1.67,1.91,1.48.19,0,.38-.1.57.06.08.49-.37.5-.59.47-1.54-.15-1.47.87-1.44,1.88,0,.27.24.62-.31.83-.38-.62,0-1.59-.9-2.05.16.59-.26.82-.6,1.11a34.45,34.45,0,0,1-7.23,4.18c-.21.1-.4.24-.59,0s0-.51.24-.62c1-.5,1.93-1,2.91-1.46A25.81,25.81,0,0,0,68.67,136c.18-.14.44-.19.24-.5a.45.45,0,0,0-.62-.12h0a3,3,0,0,1-1.57.35c1.25-1,3-1.48,2.61-3.43Zm-3.42-1.73c.23-.12.43-.28.65-.42a.33.33,0,0,1,.46,0l0,0a.36.36,0,0,1,0,.5l-.1.07c-.42.27-.87.52-1.26.76-2.9,1.4-5.75,1.8-8.56-.08-.21-.13-.6-.24-.31-.64s.48-.12.73,0c2.83,1.84,5.6,1.22,8.35-.28Z"
  />
  <path
    class="cls-4"
    d="M41.53,126.91a1,1,0,0,0-.27-.43,3.16,3.16,0,0,1-.67-2.58,2.51,2.51,0,0,0-.64-2.56,1.88,1.88,0,0,1-.22-2.2A24.62,24.62,0,0,0,41,115.58a1.26,1.26,0,0,0-.8-1.71,5.53,5.53,0,0,1-3.33-5.05,7.06,7.06,0,0,1,1.33-3.89c1.2-2,2.42-4,3.62-6A6.34,6.34,0,0,0,42,92.11a8.59,8.59,0,0,1-1-5.17,20.35,20.35,0,0,1,3-8,60.6,60.6,0,0,1,4.83-7,31.18,31.18,0,0,0-7,2.29c-.69.31-8.52,4-7.77,4.78C29.41,74.34,16,67.19,9.8,72.68c-1,.87-1.35,2.18-2.81,2.43-.52,0-1,.08-1.56.08-1.36.08-2.17.47-2.45,1.86.08-.4,2.84,1.06,3.11,1.24,4,2.7,8.6,7.07,10.13,11.79,1.67,5.18,1.78,10.82,3.29,16s3.06,10.23,5.9,14.79a51.08,51.08,0,0,0,15.12,15.41,16.5,16.5,0,0,0,4.31,2.08,29.15,29.15,0,0,1-1-3.6C43.11,132.18,42.06,129.64,41.53,126.91Z"
  />
</svg>
